<?xml version="1.0" encoding="UTF-8" standalone="no"?>
<!-- Created with Inkscape (http://www.inkscape.org/) -->

<svg
   xmlns:dc="http://purl.org/dc/elements/1.1/"
   xmlns:cc="http://creativecommons.org/ns#"
   xmlns:rdf="http://www.w3.org/1999/02/22-rdf-syntax-ns#"
   xmlns:svg="http://www.w3.org/2000/svg"
   xmlns="http://www.w3.org/2000/svg"
   xmlns:sodipodi="http://sodipodi.sourceforge.net/DTD/sodipodi-0.dtd"
   xmlns:inkscape="http://www.inkscape.org/namespaces/inkscape"
   width="256pt"
   height="256pt"
   viewBox="0 0 90.311109 90.311109"
   version="1.1"
   id="svg8"
   inkscape:version="0.92.1 r15371"
   sodipodi:docname="mini-island.svg"
   inkscape:export-filename="D:\Google Drive\tmp\mini-island.png"
   inkscape:export-xdpi="96"
   inkscape:export-ydpi="96">
  <defs
     id="defs2" />
  <sodipodi:namedview
     id="base"
     pagecolor="#ffffff"
     bordercolor="#666666"
     borderopacity="1.0"
     inkscape:pageopacity="0.0"
     inkscape:pageshadow="2"
     inkscape:zoom="1"
     inkscape:cx="111.9162"
     inkscape:cy="200"
     inkscape:document-units="mm"
     inkscape:current-layer="layer1"
     showgrid="false"
     units="pt"
     inkscape:window-width="1366"
     inkscape:window-height="705"
     inkscape:window-x="-8"
     inkscape:window-y="-8"
     inkscape:window-maximized="1" />
  <metadata
     id="metadata5">
    <rdf:RDF>
      <cc:Work
         rdf:about="">
        <dc:format>image/svg+xml</dc:format>
        <dc:type
           rdf:resource="http://purl.org/dc/dcmitype/StillImage" />
        <dc:title></dc:title>
      </cc:Work>
    </rdf:RDF>
  </metadata>
  <g
     inkscape:label="圖層 1"
     inkscape:groupmode="layer"
     id="layer1"
     transform="translate(0,-206.68892)">
    <path
       style="fill:#000000;fill-opacity:1;stroke:none;stroke-width:1.54127002;stroke-miterlimit:4;stroke-dasharray:none"
       id="path4485"
       d="m 5.9384804,285.16164 c 3.9963324,-0.90505 7.9918546,-1.81672 12.0020176,-2.6401 3.469372,-0.68476 6.915243,-1.54919 10.410677,-2.05343 2.763494,-0.17187 5.530408,-0.081 8.295695,-0.0607 3.331132,0.0185 6.66196,0.007 9.992976,-0.0289 1.89658,0.007 3.793108,-0.0566 5.689568,-0.042 2.185236,0.0239 4.370406,0.0371 6.555726,0.0422 1.936822,10e-4 3.873441,-0.0332 5.810168,-0.0483 2.198713,-0.007 4.357085,0.59478 6.517429,0.99991 2.52878,0.75292 5.112074,1.27469 7.633244,2.05357 2.325505,0.68732 3.352888,2.50959 4.827678,4.45564 1.145695,1.34209 2.259142,2.71331 3.335752,4.12643 0,0 -4.462744,3.04466 -4.462744,3.04466 v 0 c -1.049421,-1.42581 -2.130565,-2.82169 -3.244994,-4.18272 -1.390268,-1.81599 -2.555001,-3.50631 -4.704574,-4.13734 -2.491235,-0.78363 -5.018183,-1.44597 -7.54765,-2.0471 -2.181129,-0.40834 -4.372578,-0.92212 -6.594914,-0.81934 -1.897655,-0.0154 -3.795199,-0.0498 -5.692956,-0.0482 -2.219506,0.005 -4.438871,0.0187 -6.658298,0.0422 -1.859863,0.0139 -3.719725,-0.0516 -5.579683,-0.0496 -3.291956,-0.048 -6.5838,-0.073 -9.876032,-0.0669 -2.817589,0.0172 -5.643992,0.0173 -8.453432,0.27618 -3.353574,0.41044 -6.678712,1.06721 -9.99676,1.74687 -4.199249,0.89085 -8.3720953,1.9194 -12.530023,3.02976 0,0 4.2711294,-3.59303 4.2711294,-3.59303 z"
       inkscape:connector-curvature="0" />
    <path
       style="fill:#000000;fill-opacity:1;stroke:none;stroke-width:1.565449;stroke-miterlimit:4;stroke-dasharray:none"
       id="path4487"
       d="m 15.471595,285.57265 c 0.04335,-1.60463 0.288318,-3.18822 0.578481,-4.75303 0.435292,-2.54054 0.863286,-5.08291 1.293211,-7.62483 0.529821,-2.65048 1.043675,-5.30104 1.649366,-7.92967 0.612884,-2.48168 1.229663,-4.96194 1.885034,-7.42908 0.624727,-2.22011 1.172877,-4.46803 1.77873,-6.69484 0.497085,-1.91796 1.356859,-3.66788 2.107934,-5.45993 0.627417,-1.4082 1.305583,-2.78639 1.995125,-4.15434 0.530438,-0.82527 0.914952,-1.77412 1.472519,-2.57613 0.419713,-0.6037 0.640044,-0.80564 1.123027,-1.32806 0.582939,-0.54214 1.1834,-1.05768 1.778483,-1.58125 0,0 4.85938,-2.25961 4.85938,-2.25961 v 0 c -0.595868,0.51807 -1.167228,1.07494 -1.795491,1.53973 -0.514811,0.49458 -0.692616,0.62987 -1.14423,1.20535 -0.593429,0.75622 -0.908413,1.71855 -1.478015,2.49716 -0.69221,1.38186 -1.395779,2.75587 -2.072497,4.14774 -0.757494,1.76007 -1.573374,3.51172 -2.134415,5.36905 -0.597685,2.25654 -1.276015,4.48125 -1.865334,6.74056 -0.651628,2.45532 -1.211,4.93866 -1.867954,7.39137 -0.583978,2.6312 -1.196855,5.24979 -1.693256,7.90679 -0.392371,2.53834 -0.835108,5.06492 -1.241644,7.60015 -0.224202,1.49729 -0.486932,3.01777 -0.448122,4.54363 0,0 -4.780332,2.84924 -4.780332,2.84924 z"
       inkscape:connector-curvature="0" />
    <path
       style="fill:#000000;fill-opacity:1;stroke:none;stroke-width:1.54127002;stroke-miterlimit:4;stroke-dasharray:none"
       id="path4489"
       d="m 12.314038,239.45682 c 1.290702,-0.52754 2.452158,-1.37738 3.645046,-2.13084 -1.309833,0.85454 -2.616252,1.71587 -3.929499,2.56366 -0.173797,0.1123 0.337758,-0.24317 0.51088,-0.3567 1.697519,-1.11317 3.382073,-2.25277 5.100825,-3.32323 0.740223,-0.461 2.011352,-0.71314 2.819757,-0.92908 2.495611,-0.68262 5.05896,-0.96474 7.596955,-1.37392 1.984445,-0.24337 3.981272,-0.33541 5.975772,-0.3955 1.283812,-0.038 2.56821,-0.03 3.852342,-0.0334 1.583342,0.24834 3.051677,0.95233 4.510787,1.658 1.350267,0.77076 2.462768,1.88414 3.45652,3.15523 0.905073,1.14284 1.556733,2.50578 2.256327,3.81302 0.603209,1.05032 0.941447,2.24536 1.40786,3.37071 0.254702,0.7003 0.135346,0.34826 0.358404,1.05597 0,0 -4.644432,2.90969 -4.644432,2.90969 v 0 c -0.200754,-0.67169 -0.09005,-0.33762 -0.332934,-1.00177 -0.455978,-1.11172 -0.757158,-2.30071 -1.33556,-3.34884 -0.665508,-1.29226 -1.333745,-2.59242 -2.224295,-3.7078 -0.928444,-1.21549 -1.970911,-2.27802 -3.26627,-2.97741 -1.424258,-0.68995 -2.899654,-1.303 -4.460325,-1.40715 -1.264585,-0.009 -2.529198,-0.0114 -3.793767,0.002 -1.966722,0.0381 -3.935989,0.10767 -5.888245,0.40316 -2.523851,0.3561 -5.068771,0.63505 -7.528772,1.40313 -0.993005,0.31609 -1.235318,0.35742 -2.158635,0.77988 -0.23506,0.10757 -0.907138,0.51029 -0.690681,0.36073 1.285803,-0.8884 2.595486,-1.73175 3.902331,-2.57975 0.178209,-0.11572 -0.343743,0.25474 -0.515613,0.38214 -1.686613,1.10435 -3.373226,2.20873 -5.059839,3.31309 -1.227719,0.7836 -2.4526126,1.61391 -3.8042081,2.0956 0,0 4.2392691,-3.70116 4.2392691,-3.70116 z"
       inkscape:connector-curvature="0" />
    <path
       style="fill:#000000;fill-opacity:1;stroke:none;stroke-width:1.54127002;stroke-miterlimit:4;stroke-dasharray:none"
       id="path4491"
       d="m 6.0667192,231.80825 c 0.3614969,-1.47112 1.390131,-2.5121 2.438782,-3.3749 3.1827688,-2.42206 5.6657908,-4.05444 9.2176118,-4.83063 1.606331,-0.53055 3.251096,-0.8608 4.911173,-1.07259 1.337248,-0.22678 2.535874,-0.13027 3.832617,0.27096 1.277813,0.38476 2.422464,0.97754 3.476087,1.87423 1.102635,0.86846 1.837981,2.10117 2.362992,3.4795 0.376241,1.38007 0.755228,2.75907 1.117798,4.14382 0.199848,0.53974 0.321891,1.12329 0.563726,1.64356 0.04822,0.1037 0.08615,0.23295 0.177041,0.28887 0.04087,0.0252 0.112392,-0.15997 0.07082,-0.13632 -1.524114,0.86738 -3.025264,1.7857 -4.537893,2.67856 0.324833,-0.48769 0.526578,-1.05275 0.941702,-1.46584 0.247584,-0.24639 0.518042,-0.46595 0.8035,-0.65234 5.092517,-3.32535 3.622262,-2.60517 6.48906,-3.89144 1.878624,-0.81902 3.824364,-1.37629 5.816375,-1.67906 1.4442,-0.15634 2.896274,-0.12332 4.345048,-0.1298 1.148993,-0.0181 2.297786,0.006 3.446683,0.0127 1.616028,0.11737 2.976082,0.90475 4.286402,1.92263 1.071606,0.95789 1.809723,2.2881 2.614657,3.51743 0.356229,0.56268 0.609821,1.18588 0.849081,1.81859 0,0 -4.618077,2.92917 -4.618077,2.92917 v 0 c -0.20393,-0.59809 -0.422561,-1.18545 -0.757556,-1.70906 -0.75893,-1.18703 -1.477922,-2.4413 -2.509953,-3.35289 -1.255924,-0.96495 -2.571325,-1.63858 -4.123549,-1.619 -1.145191,4.1e-4 -2.290198,0.009 -3.435273,-0.0206 -1.431505,-0.009 -2.867902,-0.005 -4.291509,0.1866 -1.939252,0.31092 -3.834152,0.8791 -5.64961,1.72101 -2.360317,1.13741 -1.156357,0.62406 2.369357,-1.83813 0.252282,-0.17617 -0.529551,0.30554 -0.774597,0.49441 -0.441632,0.34039 -0.709763,0.78956 -0.872199,1.35595 -5.088938,3.29842 -4.561679,4.85011 -5.829821,0.79636 -0.374493,-1.36253 -0.687456,-2.73887 -1.078718,-4.09444 -0.479481,-1.28994 -1.185082,-2.40683 -2.226058,-3.19223 -1.030377,-0.79497 -2.118721,-1.38844 -3.346709,-1.69743 -1.234422,-0.29678 -2.462512,-0.30128 -3.714332,-0.10868 -1.648549,0.22177 -3.268362,0.61038 -4.86993,1.10639 -0.752959,0.19593 -1.508726,0.39377 -2.237896,0.68844 -1.69249,0.68402 -4.9067613,2.95074 2.011384,-1.58674 -1.003115,0.71866 -1.976008,1.57002 -2.431352,2.86354 0,0 -4.836864,2.65953 -4.836864,2.65953 z"
       inkscape:connector-curvature="0" />
    <path
       style="fill:#000000;fill-opacity:1;stroke:none;stroke-width:1.54127002;stroke-miterlimit:4;stroke-dasharray:none"
       id="path4493"
       d="m 15.917628,211.18159 c 1.065093,2e-5 2.13245,-0.17991 3.197187,-0.15881 0.441602,0.009 1.483202,0.14797 1.925471,0.20247 1.502851,0.23016 2.886112,0.97568 4.242032,1.7075 0.727972,0.43113 1.336562,1.06021 2.005894,1.58535 0.339946,0.26674 0.705968,0.48801 1.056525,0.73646 1.189612,1.12911 2.24781,2.46288 3.255629,3.80211 0.797514,1.10173 1.619125,2.18111 2.401781,3.29599 0.561331,0.79128 0.901786,1.70863 1.271397,2.61882 0.289133,0.8723 0.56209,1.75088 0.876416,2.61431 0.364947,1.1026 0.697215,2.29908 1.500928,3.08909 0.32923,0.19352 0.536434,0.36796 0.922259,0.38578 1.207351,0.0559 7.754172,-4.57768 -2.790474,2.13646 1.000065,-0.82062 1.61401,-2.07981 2.201296,-3.2813 0.606062,-1.25805 1.249672,-2.49298 1.912645,-3.7134 0.657363,-1.26205 1.589046,-2.20313 2.641649,-3.023 1.944767,-1.42988 3.987881,-2.68148 6.014698,-3.95234 0.42004,-0.26337 0.961668,-0.3653 1.409191,-0.56235 0.949408,-0.44363 1.945436,-0.65015 2.961824,-0.75083 0.908564,0.009 1.795968,-0.15679 2.694623,-0.2749 0.904451,-0.11852 1.81393,-0.17147 2.723912,-0.18374 0.936201,-0.001 1.872387,-0.007 2.808585,-0.0114 0.585613,-0.0517 1.155019,0.0525 1.730773,0.15386 0,0 -4.344653,3.47663 -4.344653,3.47663 v 0 c -0.563029,-0.0779 -1.124458,-0.10266 -1.691833,-0.0836 -0.932147,-0.005 -1.864635,-0.0139 -2.796492,0.0188 -0.896043,0.0371 -1.792503,0.0865 -2.681774,0.22437 -0.898996,0.13929 -1.797808,0.20706 -2.703021,0.26868 -0.987827,0.14549 -1.94626,0.43017 -2.869734,0.85919 -0.122966,0.0498 -0.774587,0.31097 -0.929654,0.385 -0.14877,0.071 -0.577712,0.32533 -0.439096,0.23155 7.350491,-4.97392 4.61407,-3.08965 3.033341,-1.96984 -1.074442,0.71922 -2.067319,1.55035 -2.717647,2.7869 -0.726093,1.16201 -1.328415,2.42491 -1.938001,3.66839 -0.58279,1.24889 -1.221525,2.50982 -2.07834,3.54118 -0.315529,0.20674 -4.424245,4.03439 -6.525661,3.43165 -0.468998,-0.13447 -0.650174,-0.31757 -1.053396,-0.60808 -0.139374,-0.15619 -0.294723,-0.29597 -0.418116,-0.46857 -0.579094,-0.81007 -0.826051,-1.90314 -1.205558,-2.8315 -0.324908,-0.85229 -0.630252,-1.71084 -0.897902,-2.5872 -0.33502,-0.87888 -0.635839,-1.7619 -1.189464,-2.50827 -0.739096,-1.13411 -1.515846,-2.23509 -2.300616,-3.32909 -0.977235,-1.3015 -2.021012,-2.57723 -3.221266,-3.61569 -1.019753,-0.74024 -1.980573,-1.5729 -3.029632,-2.26065 -1.300757,-0.7023 -2.607877,-1.43681 -4.065266,-1.59768 -1.731032,-0.18151 -3.471518,-0.14068 -5.187474,0.20668 0,0 4.287014,-3.65598 4.287014,-3.65598 z"
       inkscape:connector-curvature="0" />
    <path
       style="fill:#000000;fill-opacity:1;stroke:none;stroke-width:1.60212684;stroke-miterlimit:4;stroke-dasharray:none"
       id="path4495"
       d="m 64.873638,258.70667 c 1.068495,0.86027 1.986938,1.90567 2.827019,3.08086 0.840311,1.40239 1.557386,2.91568 2.291678,4.40535 0.69057,1.14451 1.290052,2.36082 1.874033,3.58922 0.449021,1.27801 0.971095,2.52444 1.401004,3.81412 0.492888,1.27783 1.060756,2.48212 1.387352,3.84446 0.206771,1.12427 0.677014,2.11869 0.983267,3.2002 0.20908,0.82988 0.298124,1.69241 0.450789,2.53876 0,0 -4.694529,3.08909 -4.694529,3.08909 v 0 c -0.14744,-0.8281 -0.239842,-1.66449 -0.406541,-2.48686 -0.294854,-1.10097 -0.797029,-2.0934 -0.986846,-3.23857 -0.287464,-1.35225 -0.837817,-2.54611 -1.345248,-3.78958 -0.411695,-1.26765 -0.94668,-2.47174 -1.362913,-3.7363 -0.575603,-1.23315 -1.193701,-2.42888 -1.859672,-3.59112 -0.696117,-1.47004 -1.376639,-2.96618 -2.213591,-4.32352 -0.793554,-1.10783 -1.705694,-2.11015 -2.808991,-2.73255 0,0 4.463189,-3.66356 4.463189,-3.66356 z"
       inkscape:connector-curvature="0" />
    <path
       style="fill:#000000;fill-opacity:1;stroke:none;stroke-width:1.54127002;stroke-miterlimit:4;stroke-dasharray:none"
       id="path4497"
       d="m 55.320056,270.89085 c 0.08116,-1.33623 0.02184,-2.67626 0.07986,-4.01306 0.03645,-1.11493 0.207238,-1.84159 0.951892,-2.57579 2.132975,-2.0471 4.586525,-3.81069 7.343983,-4.38579 0.166237,-0.0249 0.333246,-0.0437 0.498715,-0.0746 0.483082,-0.0898 0.523285,-0.09 0.960854,-0.34802 0.155082,-0.0916 0.603359,-0.40049 0.451334,-0.30269 -4.178647,2.68809 -5.343792,3.70638 -3.637268,2.26198 2.073146,-2.1007 4.634284,-3.41875 7.034081,-4.96644 1.12259,-0.51872 2.337589,-0.65421 3.534839,-0.76175 0.929314,-0.0179 1.881519,-0.19044 2.802873,-0.007 0.427621,0.12435 0.779001,0.38734 1.130905,0.67503 0,0 -4.487309,3.25854 -4.487309,3.25854 v 0 c -0.315535,-0.21494 -0.625869,-0.39905 -1.001837,-0.43477 -0.893535,-0.063 -1.792155,0.006 -2.684362,0.0669 -1.18242,0.13338 -2.372559,0.33485 -3.440472,0.96431 8.074297,-5.33165 3.610869,-2.64312 2.009847,-1.043 -2.012187,2.19401 -4.633354,3.84292 -7.389422,4.34147 -0.406334,0.1123 -0.616874,0.15482 -1.011435,0.32852 -0.171304,0.0753 -0.660077,0.364 -0.502811,0.25622 7.77351,-5.32675 4.594636,-3.3777 3.340432,-2.08127 -0.813699,0.66845 -1.121097,0.89147 -1.187243,2.15129 -0.112251,1.30168 -0.05648,2.61711 -0.0069,3.92201 0,0 -4.790652,2.76783 -4.790652,2.76783 z"
       inkscape:connector-curvature="0" />
    <path
       style="fill:#000000;fill-opacity:1;stroke:none;stroke-width:1.54127002;stroke-miterlimit:4;stroke-dasharray:none"
       id="path4499"
       d="m 47.514114,265.27139 c 0.849589,-1.32477 1.874545,-2.4836 2.968778,-3.54623 2.044301,-2.16501 4.250713,-3.27358 6.813725,-4.92452 1.118058,-0.22867 2.253042,-0.30396 3.387026,-0.32543 1.091843,0.0514 2.066094,0.58266 3.035573,1.09904 0.175012,0.11142 0.349331,0.22452 0.525036,0.33468 0.50022,0.31361 0.486043,0.26278 0.94085,0.67386 0.515333,0.46578 0.682823,0.84276 1.315946,1.10795 1.689148,-0.88159 1.974143,-1.03823 -4.143796,2.56849 -0.122228,0.072 0.228708,-0.17951 0.320125,-0.29637 0.326905,-0.41784 0.489729,-0.9784 0.654118,-1.49134 0.256936,-1.10032 0.530477,-2.19606 0.761632,-3.30379 0.126446,-1.22425 0.604989,-2.21462 1.322125,-3.11211 2.045151,-2.07184 4.543581,-3.84697 7.295673,-4.11528 0.74537,-0.0582 1.492834,-0.0574 2.239538,-0.0562 0,0 -4.308737,3.54962 -4.308737,3.54962 v 0 c -0.728787,8.3e-4 -1.459785,0.001 -2.184356,0.10328 -0.4637,0.0869 -0.914641,0.18068 -1.353103,0.38211 -0.153727,0.0705 -0.592413,0.33699 -0.450451,0.23973 4.997911,-3.42437 5.283949,-3.66168 3.65682,-2.39931 -0.750967,0.75097 -1.355766,1.63241 -1.444176,2.80422 -0.226028,1.12353 -0.50354,2.23181 -0.739267,3.35202 -0.733103,2.77321 -2.651587,6.28205 -6.07017,5.07683 -0.916836,-0.69212 -1.677486,-1.64698 -2.731276,-2.10925 -0.934608,-0.44917 -1.878009,-0.91281 -2.91605,-0.86748 -1.101845,0.0454 -2.23826,0.0704 -3.274729,0.54204 7.963916,-5.29165 3.813623,-2.79418 2.224494,-1.05571 -1.108175,0.96264 -2.145982,2.06189 -2.950884,3.36222 0,0 -4.894464,2.40698 -4.894464,2.40698 z"
       inkscape:connector-curvature="0" />
  </g>
</svg>
