<?xml version="1.0" encoding="UTF-8" standalone="no"?>
<!-- Created with Inkscape (http://www.inkscape.org/) -->

<svg
   xmlns:osb="http://www.openswatchbook.org/uri/2009/osb"
   xmlns:dc="http://purl.org/dc/elements/1.1/"
   xmlns:cc="http://creativecommons.org/ns#"
   xmlns:rdf="http://www.w3.org/1999/02/22-rdf-syntax-ns#"
   xmlns:svg="http://www.w3.org/2000/svg"
   xmlns="http://www.w3.org/2000/svg"
   xmlns:sodipodi="http://sodipodi.sourceforge.net/DTD/sodipodi-0.dtd"
   xmlns:inkscape="http://www.inkscape.org/namespaces/inkscape"
   width="960"
   height="720"
   viewBox="0 0 253.99999 190.5"
   version="1.1"
   id="svg8"
   inkscape:version="0.92.1 r15371"
   sodipodi:docname="result_regeneration.svg">
  <defs
     id="defs2">
    <marker
       inkscape:stockid="Arrow1Mend"
       orient="auto"
       refY="0.0"
       refX="0.0"
       id="Arrow1Mend"
       style="overflow:visible;"
       inkscape:isstock="true">
      <path
         id="path4831"
         d="M 0.0,0.0 L 5.0,-5.0 L -12.5,0.0 L 5.0,5.0 L 0.0,0.0 z "
         style="fill-rule:evenodd;stroke:#000000;stroke-width:1pt;stroke-opacity:1;fill:#000000;fill-opacity:1"
         transform="scale(0.4) rotate(180) translate(10,0)" />
    </marker>
    <inkscape:path-effect
       effect="bspline"
       id="path-effect4820"
       is_visible="true"
       weight="33.333333"
       steps="2"
       helper_size="0"
       apply_no_weight="true"
       apply_with_weight="true"
       only_selected="false" />
    <linearGradient
       id="linearGradient4489"
       osb:paint="solid">
      <stop
         style="stop-color:#000000;stop-opacity:1;"
         offset="0"
         id="stop4487" />
    </linearGradient>
  </defs>
  <sodipodi:namedview
     id="base"
     pagecolor="#ffffff"
     bordercolor="#666666"
     borderopacity="1.0"
     inkscape:pageopacity="0.0"
     inkscape:pageshadow="2"
     inkscape:zoom="0.99"
     inkscape:cx="493.43417"
     inkscape:cy="395.49784"
     inkscape:document-units="mm"
     inkscape:current-layer="layer1"
     showgrid="false"
     units="px"
     width="960px"
     inkscape:window-width="1080"
     inkscape:window-height="1897"
     inkscape:window-x="-8"
     inkscape:window-y="-8"
     inkscape:window-maximized="1" />
  <metadata
     id="metadata5">
    <rdf:RDF>
      <cc:Work
         rdf:about="">
        <dc:format>image/svg+xml</dc:format>
        <dc:type
           rdf:resource="http://purl.org/dc/dcmitype/StillImage" />
        <dc:title></dc:title>
      </cc:Work>
    </rdf:RDF>
  </metadata>
  <g
     inkscape:label="圖層 1"
     inkscape:groupmode="layer"
     id="layer1"
     transform="translate(0,-106.5)">
    <rect
       style="fill:none;fill-opacity:1;stroke:#ff6600;stroke-width:1.05699992;stroke-miterlimit:4;stroke-dasharray:none;stroke-opacity:1"
       id="rect4485"
       width="73.327377"
       height="46.49107"
       x="11.339286"
       y="204.01785" />
    <text
       xml:space="preserve"
       style="font-style:normal;font-weight:normal;font-size:9.43091202px;line-height:1.25;font-family:sans-serif;letter-spacing:0px;word-spacing:0px;fill:#000000;fill-opacity:1;stroke:none;stroke-width:0.2357728"
       x="33.590099"
       y="215.6019"
       id="text4495"
       transform="scale(1.0021732,0.99783151)"><tspan
         sodipodi:role="line"
         id="tspan4493"
         x="33.590099"
         y="215.6019"
         style="font-style:normal;font-variant:normal;font-weight:normal;font-stretch:normal;font-family:'Microsoft YaHei';-inkscape-font-specification:'Microsoft YaHei';stroke-width:0.2357728">課程A</tspan></text>
    <path
       sodipodi:type="star"
       style="fill:#008000;fill-opacity:1;stroke:#ffff00;stroke-width:1.05699992;stroke-miterlimit:4;stroke-dasharray:none;stroke-opacity:1"
       id="path4497-0"
       sodipodi:sides="5"
       sodipodi:cx="48.380955"
       sodipodi:cy="-26.547619"
       sodipodi:r1="13.944197"
       sodipodi:r2="6.9720984"
       sodipodi:arg1="0.57296614"
       sodipodi:arg2="1.2012847"
       inkscape:flatsided="false"
       inkscape:rounded="0"
       inkscape:randomized="0"
       d="m 60.098217,-18.988095 -9.199219,-1.058015 -6.086744,6.978291 -1.836483,-9.075922 -8.517657,-3.632427 8.06421,-4.551213 0.822543,-9.223255 6.820439,6.263117 9.026016,-2.067857 -3.848947,8.422032 z"
       inkscape:transform-center-x="0.64115697"
       inkscape:transform-center-y="0.12505449"
       transform="matrix(0.58139573,0,0,0.52457247,-4.3758677,241.24277)" />
    <path
       sodipodi:type="star"
       style="fill:#008000;fill-opacity:1;stroke:#ffff00;stroke-width:1.05699992;stroke-miterlimit:4;stroke-dasharray:none;stroke-opacity:1"
       id="path4497-5"
       sodipodi:sides="5"
       sodipodi:cx="48.380955"
       sodipodi:cy="-26.547619"
       sodipodi:r1="13.944197"
       sodipodi:r2="6.9720984"
       sodipodi:arg1="0.57296614"
       sodipodi:arg2="1.2012847"
       inkscape:flatsided="false"
       inkscape:rounded="0"
       inkscape:randomized="0"
       d="m 60.098217,-18.988095 -9.199219,-1.058015 -6.086744,6.978291 -1.836483,-9.075922 -8.517657,-3.632427 8.06421,-4.551213 0.822543,-9.223255 6.820439,6.263117 9.026016,-2.067857 -3.848947,8.422032 z"
       inkscape:transform-center-x="0.64115697"
       inkscape:transform-center-y="0.12505449"
       transform="matrix(0.58139573,0,0,0.52457247,41.359253,243.8886)" />
    <path
       sodipodi:type="star"
       style="fill:#008000;fill-opacity:1;stroke:#ffff00;stroke-width:1.05699992;stroke-miterlimit:4;stroke-dasharray:none;stroke-opacity:1"
       id="path4497-3"
       sodipodi:sides="5"
       sodipodi:cx="48.380955"
       sodipodi:cy="-26.547619"
       sodipodi:r1="13.944197"
       sodipodi:r2="6.9720984"
       sodipodi:arg1="0.57296614"
       sodipodi:arg2="1.2012847"
       inkscape:flatsided="false"
       inkscape:rounded="0"
       inkscape:randomized="0"
       d="m 60.098217,-18.988095 -9.199219,-1.058015 -6.086744,6.978291 -1.836483,-9.075922 -8.517657,-3.632427 8.06421,-4.551213 0.822543,-9.223255 6.820439,6.263117 9.026016,-2.067857 -3.848947,8.422032 z"
       inkscape:transform-center-x="0.64115697"
       inkscape:transform-center-y="0.12505449"
       transform="matrix(0.58139573,0,0,0.52457247,26.452207,240.32776)" />
    <path
       sodipodi:type="star"
       style="fill:#008000;fill-opacity:1;stroke:#ffff00;stroke-width:1.05699992;stroke-miterlimit:4;stroke-dasharray:none;stroke-opacity:1"
       id="path4497-2"
       sodipodi:sides="5"
       sodipodi:cx="48.380955"
       sodipodi:cy="-26.547619"
       sodipodi:r1="13.944197"
       sodipodi:r2="6.9720984"
       sodipodi:arg1="0.57296614"
       sodipodi:arg2="1.2012847"
       inkscape:flatsided="false"
       inkscape:rounded="0"
       inkscape:randomized="0"
       d="m 60.098217,-18.988095 -9.199219,-1.058015 -6.086744,6.978291 -1.836483,-9.075922 -8.517657,-3.632427 8.06421,-4.551213 0.822543,-9.223255 6.820439,6.263117 9.026016,-2.067857 -3.848947,8.422032 z"
       inkscape:transform-center-x="0.64115697"
       inkscape:transform-center-y="0.12505449"
       transform="matrix(0.58139573,0,0,0.52457247,5.8426813,247.19105)" />
    <path
       sodipodi:type="star"
       style="fill:#008000;fill-opacity:1;stroke:#ffff00;stroke-width:1.05699992;stroke-miterlimit:4;stroke-dasharray:none;stroke-opacity:1"
       id="path4497-4"
       sodipodi:sides="5"
       sodipodi:cx="48.380955"
       sodipodi:cy="-26.547619"
       sodipodi:r1="13.944197"
       sodipodi:r2="6.9720984"
       sodipodi:arg1="0.57296614"
       sodipodi:arg2="1.2012847"
       inkscape:flatsided="false"
       inkscape:rounded="0"
       inkscape:randomized="0"
       d="m 60.098217,-18.988095 -9.199219,-1.058015 -6.086744,6.978291 -1.836483,-9.075922 -8.517657,-3.632427 8.06421,-4.551213 0.822543,-9.223255 6.820439,6.263117 9.026016,-2.067857 -3.848947,8.422032 z"
       inkscape:transform-center-x="0.64115697"
       inkscape:transform-center-y="0.12505449"
       transform="matrix(0.58139573,0,0,0.52457247,23.339965,250.93446)" />
    <path
       sodipodi:type="star"
       style="fill:#008000;fill-opacity:1;stroke:#ffff00;stroke-width:1.05699992;stroke-miterlimit:4;stroke-dasharray:none;stroke-opacity:1"
       id="path4497-7"
       sodipodi:sides="5"
       sodipodi:cx="48.380955"
       sodipodi:cy="-26.547619"
       sodipodi:r1="13.944197"
       sodipodi:r2="6.9720984"
       sodipodi:arg1="0.57296614"
       sodipodi:arg2="1.2012847"
       inkscape:flatsided="false"
       inkscape:rounded="0"
       inkscape:randomized="0"
       d="m 60.098217,-18.988095 -9.199219,-1.058015 -6.086744,6.978291 -1.836483,-9.075922 -8.517657,-3.632427 8.06421,-4.551213 0.822543,-9.223255 6.820439,6.263117 9.026016,-2.067857 -3.848947,8.422032 z"
       inkscape:transform-center-x="0.64115697"
       inkscape:transform-center-y="0.12505449"
       transform="matrix(0.58139573,0,0,0.52457247,38.247011,254.4953)" />
    <rect
       style="fill:none;fill-opacity:1;stroke:#ff6600;stroke-width:1.05699992;stroke-miterlimit:4;stroke-dasharray:none;stroke-opacity:1"
       id="rect4485-2"
       width="73.327377"
       height="46.49107"
       x="93.738098"
       y="204.20685" />
    <text
       xml:space="preserve"
       style="font-style:normal;font-weight:normal;font-size:9.43091202px;line-height:1.25;font-family:sans-serif;letter-spacing:0px;word-spacing:0px;fill:#000000;fill-opacity:1;stroke:none;stroke-width:0.2357728"
       x="115.81022"
       y="215.79129"
       id="text4495-8"
       transform="scale(1.0021732,0.99783152)"><tspan
         sodipodi:role="line"
         id="tspan4493-5"
         x="115.81022"
         y="215.79129"
         style="font-style:normal;font-variant:normal;font-weight:normal;font-stretch:normal;font-family:'Microsoft YaHei';-inkscape-font-specification:'Microsoft YaHei';stroke-width:0.2357728">課程B</tspan></text>
    <path
       sodipodi:type="star"
       style="fill:#ff0000;fill-opacity:1;stroke:#ffff00;stroke-width:1.05699992;stroke-miterlimit:4;stroke-dasharray:none;stroke-opacity:1"
       id="path4497-0-2"
       sodipodi:sides="5"
       sodipodi:cx="48.380955"
       sodipodi:cy="-26.547619"
       sodipodi:r1="13.944197"
       sodipodi:r2="6.9720984"
       sodipodi:arg1="0.57296614"
       sodipodi:arg2="1.2012847"
       inkscape:flatsided="false"
       inkscape:rounded="0"
       inkscape:randomized="0"
       d="m 60.098217,-18.988095 -9.199219,-1.058015 -6.086744,6.978291 -1.836483,-9.075922 -8.517657,-3.632427 8.06421,-4.551213 0.822543,-9.223255 6.820439,6.263117 9.026016,-2.067857 -3.848947,8.422032 z"
       inkscape:transform-center-x="0.64115697"
       inkscape:transform-center-y="0.12505449"
       transform="matrix(0.58139573,0,0,0.52457247,78.022944,241.43175)" />
    <path
       sodipodi:type="star"
       style="fill:#ff0000;fill-opacity:1;stroke:#ffff00;stroke-width:1.05699992;stroke-miterlimit:4;stroke-dasharray:none;stroke-opacity:1"
       id="path4497-5-5"
       sodipodi:sides="5"
       sodipodi:cx="48.380955"
       sodipodi:cy="-26.547619"
       sodipodi:r1="13.944197"
       sodipodi:r2="6.9720984"
       sodipodi:arg1="0.57296614"
       sodipodi:arg2="1.2012847"
       inkscape:flatsided="false"
       inkscape:rounded="0"
       inkscape:randomized="0"
       d="m 60.098217,-18.988095 -9.199219,-1.058015 -6.086744,6.978291 -1.836483,-9.075922 -8.517657,-3.632427 8.06421,-4.551213 0.822543,-9.223255 6.820439,6.263117 9.026016,-2.067857 -3.848947,8.422032 z"
       inkscape:transform-center-x="0.64115697"
       inkscape:transform-center-y="0.12505449"
       transform="matrix(0.58139573,0,0,0.52457247,112.55746,238.88286)" />
    <path
       sodipodi:type="star"
       style="fill:#ff0000;fill-opacity:1;stroke:#ffff00;stroke-width:1.05699992;stroke-miterlimit:4;stroke-dasharray:none;stroke-opacity:1"
       id="path4497-3-5"
       sodipodi:sides="5"
       sodipodi:cx="48.380955"
       sodipodi:cy="-26.547619"
       sodipodi:r1="13.944197"
       sodipodi:r2="6.9720984"
       sodipodi:arg1="0.57296614"
       sodipodi:arg2="1.2012847"
       inkscape:flatsided="false"
       inkscape:rounded="0"
       inkscape:randomized="0"
       d="m 60.098217,-18.988095 -9.199219,-1.058015 -6.086744,6.978291 -1.836483,-9.075922 -8.517657,-3.632427 8.06421,-4.551213 0.822543,-9.223255 6.820439,6.263117 9.026016,-2.067857 -3.848947,8.422032 z"
       inkscape:transform-center-x="0.64115697"
       inkscape:transform-center-y="0.12505449"
       transform="matrix(0.58139573,0,0,0.52457247,98.177677,243.90785)" />
    <path
       sodipodi:type="star"
       style="fill:#ff0000;fill-opacity:1;stroke:#ffff00;stroke-width:1.05699992;stroke-miterlimit:4;stroke-dasharray:none;stroke-opacity:1"
       id="path4497-2-0"
       sodipodi:sides="5"
       sodipodi:cx="48.380955"
       sodipodi:cy="-26.547619"
       sodipodi:r1="13.944197"
       sodipodi:r2="6.9720984"
       sodipodi:arg1="0.57296614"
       sodipodi:arg2="1.2012847"
       inkscape:flatsided="false"
       inkscape:rounded="0"
       inkscape:randomized="0"
       d="m 60.098217,-18.988095 -9.199219,-1.058015 -6.086744,6.978291 -1.836483,-9.075922 -8.517657,-3.632427 8.06421,-4.551213 0.822543,-9.223255 6.820439,6.263117 9.026016,-2.067857 -3.848947,8.422032 z"
       inkscape:transform-center-x="0.64115697"
       inkscape:transform-center-y="0.12505449"
       transform="matrix(0.58139573,0,0,0.52457247,74.910702,252.03845)" />
    <path
       sodipodi:type="star"
       style="fill:#ff0000;fill-opacity:1;stroke:#ffff00;stroke-width:1.05699992;stroke-miterlimit:4;stroke-dasharray:none;stroke-opacity:1"
       id="path4497-4-1"
       sodipodi:sides="5"
       sodipodi:cx="48.380955"
       sodipodi:cy="-26.547619"
       sodipodi:r1="13.944197"
       sodipodi:r2="6.9720984"
       sodipodi:arg1="0.57296614"
       sodipodi:arg2="1.2012847"
       inkscape:flatsided="false"
       inkscape:rounded="0"
       inkscape:randomized="0"
       d="m 60.098217,-18.988095 -9.199219,-1.058015 -6.086744,6.978291 -1.836483,-9.075922 -8.517657,-3.632427 8.06421,-4.551213 0.822543,-9.223255 6.820439,6.263117 9.026016,-2.067857 -3.848947,8.422032 z"
       inkscape:transform-center-x="0.64115697"
       inkscape:transform-center-y="0.12505449"
       transform="matrix(0.58139573,0,0,0.52457247,89.817748,255.59929)" />
    <path
       sodipodi:type="star"
       style="fill:#ff0000;fill-opacity:1;stroke:#ffff00;stroke-width:1.05699992;stroke-miterlimit:4;stroke-dasharray:none;stroke-opacity:1"
       id="path4497-7-8"
       sodipodi:sides="5"
       sodipodi:cx="48.380955"
       sodipodi:cy="-26.547619"
       sodipodi:r1="13.944197"
       sodipodi:r2="6.9720984"
       sodipodi:arg1="0.57296614"
       sodipodi:arg2="1.2012847"
       inkscape:flatsided="false"
       inkscape:rounded="0"
       inkscape:randomized="0"
       d="m 60.098217,-18.988095 -9.199219,-1.058015 -6.086744,6.978291 -1.836483,-9.075922 -8.517657,-3.632427 8.06421,-4.551213 0.822543,-9.223255 6.820439,6.263117 9.026016,-2.067857 -3.848947,8.422032 z"
       inkscape:transform-center-x="0.64115697"
       inkscape:transform-center-y="0.12505449"
       transform="matrix(0.58139573,0,0,0.52457247,122.77601,244.83114)" />
    <path
       sodipodi:type="star"
       style="fill:#ff0000;fill-opacity:1;stroke:#ffff00;stroke-width:1.05699992;stroke-miterlimit:4;stroke-dasharray:none;stroke-opacity:1"
       id="path4497-7-8-3"
       sodipodi:sides="5"
       sodipodi:cx="48.380955"
       sodipodi:cy="-26.547619"
       sodipodi:r1="13.944197"
       sodipodi:r2="6.9720984"
       sodipodi:arg1="0.57296614"
       sodipodi:arg2="1.2012847"
       inkscape:flatsided="false"
       inkscape:rounded="0"
       inkscape:randomized="0"
       d="m 60.098217,-18.988095 -9.199219,-1.058015 -6.086744,6.978291 -1.836483,-9.075922 -8.517657,-3.632427 8.06421,-4.551213 0.822543,-9.223255 6.820439,6.263117 9.026016,-2.067857 -3.848947,8.422032 z"
       inkscape:transform-center-x="0.64115697"
       inkscape:transform-center-y="0.12505449"
       transform="matrix(0.58139573,0,0,0.52457247,108.39623,249.85613)" />
    <rect
       style="fill:none;fill-opacity:1;stroke:#ff6600;stroke-width:1.05699992;stroke-miterlimit:4;stroke-dasharray:none;stroke-opacity:1"
       id="rect4485-2-2"
       width="73.327377"
       height="46.49107"
       x="176.51488"
       y="203.82887" />
    <text
       xml:space="preserve"
       style="font-style:normal;font-weight:normal;font-size:9.43091202px;line-height:1.25;font-family:sans-serif;letter-spacing:0px;word-spacing:0px;fill:#000000;fill-opacity:1;stroke:none;stroke-width:0.2357728"
       x="198.4075"
       y="215.41248"
       id="text4495-8-0"
       transform="scale(1.0021732,0.99783152)"><tspan
         sodipodi:role="line"
         id="tspan4493-5-6"
         x="198.4075"
         y="215.41248"
         style="font-style:normal;font-variant:normal;font-weight:normal;font-stretch:normal;font-family:'Microsoft YaHei';-inkscape-font-specification:'Microsoft YaHei';stroke-width:0.2357728">課程C</tspan></text>
    <path
       sodipodi:type="star"
       style="fill:#00ffff;fill-opacity:1;stroke:#ffff00;stroke-width:1.05699992;stroke-miterlimit:4;stroke-dasharray:none;stroke-opacity:1"
       id="path4497-0-2-4"
       sodipodi:sides="5"
       sodipodi:cx="48.380955"
       sodipodi:cy="-26.547619"
       sodipodi:r1="13.944197"
       sodipodi:r2="6.9720984"
       sodipodi:arg1="0.57296614"
       sodipodi:arg2="1.2012847"
       inkscape:flatsided="false"
       inkscape:rounded="0"
       inkscape:randomized="0"
       d="m 60.098217,-18.988095 -9.199219,-1.058015 -6.086744,6.978291 -1.836483,-9.075922 -8.517657,-3.632427 8.06421,-4.551213 0.822543,-9.223255 6.820439,6.263117 9.026016,-2.067857 -3.848947,8.422032 z"
       inkscape:transform-center-x="0.64115697"
       inkscape:transform-center-y="0.12505449"
       transform="matrix(0.58139573,0,0,0.52457247,160.79973,241.05377)" />
    <path
       sodipodi:type="star"
       style="fill:#00ffff;fill-opacity:1;stroke:#ffff00;stroke-width:1.05699992;stroke-miterlimit:4;stroke-dasharray:none;stroke-opacity:1"
       id="path4497-5-5-6"
       sodipodi:sides="5"
       sodipodi:cx="48.380955"
       sodipodi:cy="-26.547619"
       sodipodi:r1="13.944197"
       sodipodi:r2="6.9720984"
       sodipodi:arg1="0.57296614"
       sodipodi:arg2="1.2012847"
       inkscape:flatsided="false"
       inkscape:rounded="0"
       inkscape:randomized="0"
       d="m 60.098217,-18.988095 -9.199219,-1.058015 -6.086744,6.978291 -1.836483,-9.075922 -8.517657,-3.632427 8.06421,-4.551213 0.822543,-9.223255 6.820439,6.263117 9.026016,-2.067857 -3.848947,8.422032 z"
       inkscape:transform-center-x="0.64115697"
       inkscape:transform-center-y="0.12505449"
       transform="matrix(0.58139573,0,0,0.52457247,195.33424,238.50488)" />
    <path
       sodipodi:type="star"
       style="fill:#00ffff;fill-opacity:1;stroke:#ffff00;stroke-width:1.05699992;stroke-miterlimit:4;stroke-dasharray:none;stroke-opacity:1"
       id="path4497-3-5-8"
       sodipodi:sides="5"
       sodipodi:cx="48.380955"
       sodipodi:cy="-26.547619"
       sodipodi:r1="13.944197"
       sodipodi:r2="6.9720984"
       sodipodi:arg1="0.57296614"
       sodipodi:arg2="1.2012847"
       inkscape:flatsided="false"
       inkscape:rounded="0"
       inkscape:randomized="0"
       d="m 60.098217,-18.988095 -9.199219,-1.058015 -6.086744,6.978291 -1.836483,-9.075922 -8.517657,-3.632427 8.06421,-4.551213 0.822543,-9.223255 6.820439,6.263117 9.026016,-2.067857 -3.848947,8.422032 z"
       inkscape:transform-center-x="0.64115697"
       inkscape:transform-center-y="0.12505449"
       transform="matrix(0.58139573,0,0,0.52457247,180.95446,243.52987)" />
    <path
       sodipodi:type="star"
       style="fill:#00ffff;fill-opacity:1;stroke:#ffff00;stroke-width:1.05699992;stroke-miterlimit:4;stroke-dasharray:none;stroke-opacity:1"
       id="path4497-2-0-5"
       sodipodi:sides="5"
       sodipodi:cx="48.380955"
       sodipodi:cy="-26.547619"
       sodipodi:r1="13.944197"
       sodipodi:r2="6.9720984"
       sodipodi:arg1="0.57296614"
       sodipodi:arg2="1.2012847"
       inkscape:flatsided="false"
       inkscape:rounded="0"
       inkscape:randomized="0"
       d="m 60.098217,-18.988095 -9.199219,-1.058015 -6.086744,6.978291 -1.836483,-9.075922 -8.517657,-3.632427 8.06421,-4.551213 0.822543,-9.223255 6.820439,6.263117 9.026016,-2.067857 -3.848947,8.422032 z"
       inkscape:transform-center-x="0.64115697"
       inkscape:transform-center-y="0.12505449"
       transform="matrix(0.58139573,0,0,0.52457247,157.68749,251.66047)" />
    <path
       sodipodi:type="star"
       style="fill:#00ffff;fill-opacity:1;stroke:#ffff00;stroke-width:1.05699992;stroke-miterlimit:4;stroke-dasharray:none;stroke-opacity:1"
       id="path4497-4-1-1"
       sodipodi:sides="5"
       sodipodi:cx="48.380955"
       sodipodi:cy="-26.547619"
       sodipodi:r1="13.944197"
       sodipodi:r2="6.9720984"
       sodipodi:arg1="0.57296614"
       sodipodi:arg2="1.2012847"
       inkscape:flatsided="false"
       inkscape:rounded="0"
       inkscape:randomized="0"
       d="m 60.098217,-18.988095 -9.199219,-1.058015 -6.086744,6.978291 -1.836483,-9.075922 -8.517657,-3.632427 8.06421,-4.551213 0.822543,-9.223255 6.820439,6.263117 9.026016,-2.067857 -3.848947,8.422032 z"
       inkscape:transform-center-x="0.64115697"
       inkscape:transform-center-y="0.12505449"
       transform="matrix(0.58139573,0,0,0.52457247,172.59453,255.22131)" />
    <path
       sodipodi:type="star"
       style="fill:#00ffff;fill-opacity:1;stroke:#ffff00;stroke-width:1.05699992;stroke-miterlimit:4;stroke-dasharray:none;stroke-opacity:1"
       id="path4497-7-8-0"
       sodipodi:sides="5"
       sodipodi:cx="48.380955"
       sodipodi:cy="-26.547619"
       sodipodi:r1="13.944197"
       sodipodi:r2="6.9720984"
       sodipodi:arg1="0.57296614"
       sodipodi:arg2="1.2012847"
       inkscape:flatsided="false"
       inkscape:rounded="0"
       inkscape:randomized="0"
       d="m 60.098217,-18.988095 -9.199219,-1.058015 -6.086744,6.978291 -1.836483,-9.075922 -8.517657,-3.632427 8.06421,-4.551213 0.822543,-9.223255 6.820439,6.263117 9.026016,-2.067857 -3.848947,8.422032 z"
       inkscape:transform-center-x="0.64115697"
       inkscape:transform-center-y="0.12505449"
       transform="matrix(0.58139573,0,0,0.52457247,205.55279,244.45316)" />
    <path
       sodipodi:type="star"
       style="fill:#00ffff;fill-opacity:1;stroke:#ffff00;stroke-width:1.05699992;stroke-miterlimit:4;stroke-dasharray:none;stroke-opacity:1"
       id="path4497-7-8-3-7"
       sodipodi:sides="5"
       sodipodi:cx="48.380955"
       sodipodi:cy="-26.547619"
       sodipodi:r1="13.944197"
       sodipodi:r2="6.9720984"
       sodipodi:arg1="0.57296614"
       sodipodi:arg2="1.2012847"
       inkscape:flatsided="false"
       inkscape:rounded="0"
       inkscape:randomized="0"
       d="m 60.098217,-18.988095 -9.199219,-1.058015 -6.086744,6.978291 -1.836483,-9.075922 -8.517657,-3.632427 8.06421,-4.551213 0.822543,-9.223255 6.820439,6.263117 9.026016,-2.067857 -3.848947,8.422032 z"
       inkscape:transform-center-x="0.64115697"
       inkscape:transform-center-y="0.12505449"
       transform="matrix(0.58139573,0,0,0.52457247,191.17302,249.47815)" />
    <path
       sodipodi:type="star"
       style="fill:#00ffff;fill-opacity:1;stroke:#ffff00;stroke-width:1.05699992;stroke-miterlimit:4;stroke-dasharray:none;stroke-opacity:1"
       id="path4497-3-5-8-6"
       sodipodi:sides="5"
       sodipodi:cx="48.380955"
       sodipodi:cy="-26.547619"
       sodipodi:r1="13.944197"
       sodipodi:r2="6.9720984"
       sodipodi:arg1="0.57296614"
       sodipodi:arg2="1.2012847"
       inkscape:flatsided="false"
       inkscape:rounded="0"
       inkscape:randomized="0"
       d="m 60.098217,-18.988095 -9.199219,-1.058015 -6.086744,6.978291 -1.836483,-9.075922 -8.517657,-3.632427 8.06421,-4.551213 0.822543,-9.223255 6.820439,6.263117 9.026016,-2.067857 -3.848947,8.422032 z"
       inkscape:transform-center-x="0.64115697"
       inkscape:transform-center-y="0.12505449"
       transform="matrix(0.58139573,0,0,0.52457247,33.0955,160.92607)" />
    <path
       sodipodi:type="star"
       style="fill:#00ffff;fill-opacity:1;stroke:#ffff00;stroke-width:1.05699992;stroke-miterlimit:4;stroke-dasharray:none;stroke-opacity:1"
       id="path4497-3-5-8-9"
       sodipodi:sides="5"
       sodipodi:cx="48.380955"
       sodipodi:cy="-26.547619"
       sodipodi:r1="13.944197"
       sodipodi:r2="6.9720984"
       sodipodi:arg1="0.57296614"
       sodipodi:arg2="1.2012847"
       inkscape:flatsided="false"
       inkscape:rounded="0"
       inkscape:randomized="0"
       d="m 60.098217,-18.988095 -9.199219,-1.058015 -6.086744,6.978291 -1.836483,-9.075922 -8.517657,-3.632427 8.06421,-4.551213 0.822543,-9.223255 6.820439,6.263117 9.026016,-2.067857 -3.848947,8.422032 z"
       inkscape:transform-center-x="0.64115697"
       inkscape:transform-center-y="0.12505449"
       transform="matrix(0.58139573,0,0,0.52457247,33.948632,174.81823)" />
    <path
       sodipodi:type="star"
       style="fill:#008000;fill-opacity:1;stroke:#ffff00;stroke-width:1.05699992;stroke-miterlimit:4;stroke-dasharray:none;stroke-opacity:1"
       id="path4497-3-8-3"
       sodipodi:sides="5"
       sodipodi:cx="48.380955"
       sodipodi:cy="-26.547619"
       sodipodi:r1="13.944197"
       sodipodi:r2="6.9720984"
       sodipodi:arg1="0.57296614"
       sodipodi:arg2="1.2012847"
       inkscape:flatsided="false"
       inkscape:rounded="0"
       inkscape:randomized="0"
       d="m 60.098217,-18.988095 -9.199219,-1.058015 -6.086744,6.978291 -1.836483,-9.075922 -8.517657,-3.632427 8.06421,-4.551213 0.822543,-9.223255 6.820439,6.263117 9.026016,-2.067857 -3.848947,8.422032 z"
       inkscape:transform-center-x="0.64115697"
       inkscape:transform-center-y="0.12505449"
       transform="matrix(0.58139573,0,0,0.52457247,47.475281,155.90108)" />
    <path
       sodipodi:type="star"
       style="fill:#008000;fill-opacity:1;stroke:#ffff00;stroke-width:1.05699992;stroke-miterlimit:4;stroke-dasharray:none;stroke-opacity:1"
       id="path4497-3-8-7"
       sodipodi:sides="5"
       sodipodi:cx="48.380955"
       sodipodi:cy="-26.547619"
       sodipodi:r1="13.944197"
       sodipodi:r2="6.9720984"
       sodipodi:arg1="0.57296614"
       sodipodi:arg2="1.2012847"
       inkscape:flatsided="false"
       inkscape:rounded="0"
       inkscape:randomized="0"
       d="m 60.098217,-18.988095 -9.199219,-1.058015 -6.086744,6.978291 -1.836483,-9.075922 -8.517657,-3.632427 8.06421,-4.551213 0.822543,-9.223255 6.820439,6.263117 9.026016,-2.067857 -3.848947,8.422032 z"
       inkscape:transform-center-x="0.64115697"
       inkscape:transform-center-y="0.12505449"
       transform="matrix(0.58139573,0,0,0.52457247,60.734066,173.47913)" />
    <path
       sodipodi:type="star"
       style="fill:#ff0000;fill-opacity:1;stroke:#ffff00;stroke-width:1.05699992;stroke-miterlimit:4;stroke-dasharray:none;stroke-opacity:1"
       id="path4497-1"
       sodipodi:sides="5"
       sodipodi:cx="48.380955"
       sodipodi:cy="-26.547619"
       sodipodi:r1="13.944197"
       sodipodi:r2="6.9720984"
       sodipodi:arg1="0.57296614"
       sodipodi:arg2="1.2012847"
       inkscape:flatsided="false"
       inkscape:rounded="0"
       inkscape:randomized="0"
       d="m 60.098217,-18.988095 -9.199219,-1.058015 -6.086744,6.978291 -1.836483,-9.075922 -8.517657,-3.632427 8.06421,-4.551213 0.822543,-9.223255 6.820439,6.263117 9.026016,-2.067857 -3.848947,8.422032 z"
       inkscape:transform-center-x="0.64115697"
       inkscape:transform-center-y="0.12505449"
       transform="matrix(0.58139573,0,0,0.52457247,69.093995,161.78769)" />
    <path
       sodipodi:type="star"
       style="fill:#ff0000;fill-opacity:1;stroke:#ffff00;stroke-width:1.05699992;stroke-miterlimit:4;stroke-dasharray:none;stroke-opacity:1"
       id="path4497-08"
       sodipodi:sides="5"
       sodipodi:cx="48.380955"
       sodipodi:cy="-26.547619"
       sodipodi:r1="13.944197"
       sodipodi:r2="6.9720984"
       sodipodi:arg1="0.57296614"
       sodipodi:arg2="1.2012847"
       inkscape:flatsided="false"
       inkscape:rounded="0"
       inkscape:randomized="0"
       d="m 60.098217,-18.988095 -9.199219,-1.058015 -6.086744,6.978291 -1.836483,-9.075922 -8.517657,-3.632427 8.06421,-4.551213 0.822543,-9.223255 6.820439,6.263117 9.026016,-2.067857 -3.848947,8.422032 z"
       inkscape:transform-center-x="0.64115697"
       inkscape:transform-center-y="0.12505449"
       transform="matrix(0.58139573,0,0,0.52457247,61.587198,187.37129)" />
    <path
       sodipodi:type="star"
       style="fill:#00ffff;fill-opacity:1;stroke:#ffff00;stroke-width:1.05699992;stroke-miterlimit:4;stroke-dasharray:none;stroke-opacity:1"
       id="path4497-3-5-8-6-0"
       sodipodi:sides="5"
       sodipodi:cx="48.380955"
       sodipodi:cy="-26.547619"
       sodipodi:r1="13.944197"
       sodipodi:r2="6.9720984"
       sodipodi:arg1="0.57296614"
       sodipodi:arg2="1.2012847"
       inkscape:flatsided="false"
       inkscape:rounded="0"
       inkscape:randomized="0"
       d="m 60.098217,-18.988095 -9.199219,-1.058015 -6.086744,6.978291 -1.836483,-9.075922 -8.517657,-3.632427 8.06421,-4.551213 0.822543,-9.223255 6.820439,6.263117 9.026016,-2.067857 -3.848947,8.422032 z"
       inkscape:transform-center-x="0.64115697"
       inkscape:transform-center-y="0.12505449"
       transform="matrix(0.58139573,0,0,0.52457247,156.25694,175.04837)" />
    <path
       sodipodi:type="star"
       style="fill:#00ffff;fill-opacity:1;stroke:#ffff00;stroke-width:1.05699992;stroke-miterlimit:4;stroke-dasharray:none;stroke-opacity:1"
       id="path4497-3-5-8-9-8"
       sodipodi:sides="5"
       sodipodi:cx="48.380955"
       sodipodi:cy="-26.547619"
       sodipodi:r1="13.944197"
       sodipodi:r2="6.9720984"
       sodipodi:arg1="0.57296614"
       sodipodi:arg2="1.2012847"
       inkscape:flatsided="false"
       inkscape:rounded="0"
       inkscape:randomized="0"
       d="m 60.098217,-18.988095 -9.199219,-1.058015 -6.086744,6.978291 -1.836483,-9.075922 -8.517657,-3.632427 8.06421,-4.551213 0.822543,-9.223255 6.820439,6.263117 9.026016,-2.067857 -3.848947,8.422032 z"
       inkscape:transform-center-x="0.64115697"
       inkscape:transform-center-y="0.12505449"
       transform="matrix(0.58139573,0,0,0.52457247,119.51659,174.73211)" />
    <path
       sodipodi:type="star"
       style="fill:#008000;fill-opacity:1;stroke:#ffff00;stroke-width:1.05699992;stroke-miterlimit:4;stroke-dasharray:none;stroke-opacity:1"
       id="path4497-3-8-3-9"
       sodipodi:sides="5"
       sodipodi:cx="48.380955"
       sodipodi:cy="-26.547619"
       sodipodi:r1="13.944197"
       sodipodi:r2="6.9720984"
       sodipodi:arg1="0.57296614"
       sodipodi:arg2="1.2012847"
       inkscape:flatsided="false"
       inkscape:rounded="0"
       inkscape:randomized="0"
       d="m 60.098217,-18.988095 -9.199219,-1.058015 -6.086744,6.978291 -1.836483,-9.075922 -8.517657,-3.632427 8.06421,-4.551213 0.822543,-9.223255 6.820439,6.263117 9.026016,-2.067857 -3.848947,8.422032 z"
       inkscape:transform-center-x="0.64115697"
       inkscape:transform-center-y="0.12505449"
       transform="matrix(0.58139573,0,0,0.52457247,138.30966,159.85777)" />
    <path
       sodipodi:type="star"
       style="fill:#008000;fill-opacity:1;stroke:#ffff00;stroke-width:1.05699992;stroke-miterlimit:4;stroke-dasharray:none;stroke-opacity:1"
       id="path4497-3-8-7-5"
       sodipodi:sides="5"
       sodipodi:cx="48.380955"
       sodipodi:cy="-26.547619"
       sodipodi:r1="13.944197"
       sodipodi:r2="6.9720984"
       sodipodi:arg1="0.57296614"
       sodipodi:arg2="1.2012847"
       inkscape:flatsided="false"
       inkscape:rounded="0"
       inkscape:randomized="0"
       d="m 60.098217,-18.988095 -9.199219,-1.058015 -6.086744,6.978291 -1.836483,-9.075922 -8.517657,-3.632427 8.06421,-4.551213 0.822543,-9.223255 6.820439,6.263117 9.026016,-2.067857 -3.848947,8.422032 z"
       inkscape:transform-center-x="0.64115697"
       inkscape:transform-center-y="0.12505449"
       transform="matrix(0.58139573,0,0,0.52457247,129.73514,180.68039)" />
    <path
       sodipodi:type="star"
       style="fill:#ff0000;fill-opacity:1;stroke:#ffff00;stroke-width:1.05699992;stroke-miterlimit:4;stroke-dasharray:none;stroke-opacity:1"
       id="path4497-1-0"
       sodipodi:sides="5"
       sodipodi:cx="48.380955"
       sodipodi:cy="-26.547619"
       sodipodi:r1="13.944197"
       sodipodi:r2="6.9720984"
       sodipodi:arg1="0.57296614"
       sodipodi:arg2="1.2012847"
       inkscape:flatsided="false"
       inkscape:rounded="0"
       inkscape:randomized="0"
       d="m 60.098217,-18.988095 -9.199219,-1.058015 -6.086744,6.978291 -1.836483,-9.075922 -8.517657,-3.632427 8.06421,-4.551213 0.822543,-9.223255 6.820439,6.263117 9.026016,-2.067857 -3.848947,8.422032 z"
       inkscape:transform-center-x="0.64115697"
       inkscape:transform-center-y="0.12505449"
       transform="matrix(0.58139573,0,0,0.52457247,139.16279,173.74993)" />
    <path
       sodipodi:type="star"
       style="fill:#ff0000;fill-opacity:1;stroke:#ffff00;stroke-width:1.05699992;stroke-miterlimit:4;stroke-dasharray:none;stroke-opacity:1"
       id="path4497-08-7"
       sodipodi:sides="5"
       sodipodi:cx="48.380955"
       sodipodi:cy="-26.547619"
       sodipodi:r1="13.944197"
       sodipodi:r2="6.9720984"
       sodipodi:arg1="0.57296614"
       sodipodi:arg2="1.2012847"
       inkscape:flatsided="false"
       inkscape:rounded="0"
       inkscape:randomized="0"
       d="m 60.098217,-18.988095 -9.199219,-1.058015 -6.086744,6.978291 -1.836483,-9.075922 -8.517657,-3.632427 8.06421,-4.551213 0.822543,-9.223255 6.820439,6.263117 9.026016,-2.067857 -3.848947,8.422032 z"
       inkscape:transform-center-x="0.64115697"
       inkscape:transform-center-y="0.12505449"
       transform="matrix(0.58139573,0,0,0.52457247,147.15515,187.28517)" />
    <path
       style="opacity:1;vector-effect:none;fill:none;fill-opacity:1;stroke:#000000;stroke-width:0.96499997;stroke-linecap:butt;stroke-linejoin:miter;stroke-miterlimit:4;stroke-dasharray:none;stroke-dashoffset:0;stroke-opacity:1"
       d="m 78.305975,129.96507 c 0.547587,0.15541 2.159093,-0.17115 2.672559,0 0.377958,0.12599 0.737534,0.31352 1.069025,0.53451 0.809112,-0.65948 0.459695,0.72696 0.534512,0.80177 0.281712,0.28171 0.78731,0.2528 1.069022,0.53451 0.06299,0.063 0,0.17817 0,0.26726 0.267256,0.17817 0.514477,0.39086 0.801767,0.53451 0.07968,0.0398 0.204264,-0.063 0.267258,0 0.06299,0.063 0,0.17817 0,0.26726 0.178171,0.17817 0.332933,0.38333 0.534512,0.53451 0.159361,0.11952 0.345532,0.20426 0.534511,0.26725 0.08451,0.0282 0.204263,-0.063 0.267255,0 0.06299,0.063 0,0.17817 0,0.26726 0.08909,0.17817 0.1264,0.39366 0.267256,0.53451 0.06299,0.063 0.187576,-0.0398 0.267256,0 0.590917,0.29546 0.08294,0.16587 0.267255,0.53451 0.160354,0.32071 0.641416,0.48106 0.80177,0.80177 0.07968,0.15936 -0.07968,0.37515 0,0.53451 0.07968,0.15936 0.356341,0 0.534511,0 0.743522,0 -0.29111,-0.063 0.534511,0.26726 0.442521,0.66373 1.089459,0.0959 1.603537,0.26725 0.11952,0.0398 0.154569,0.21092 0.267255,0.26726 0.239041,0.11952 0.548225,-0.0845 0.801767,0 0.11952,0.0398 0.154572,0.21091 0.267256,0.26726 0.187788,0.0939 2.297364,0 2.672559,0 2.048963,0 4.097923,0 6.146881,0 0.6398,0 2.78542,-0.10542 3.20707,0 0.12223,0.0305 0.17817,0.17817 0.26726,0.26725 0.17817,0.17817 0.35634,0.35634 0.53451,0.53451 0.51157,0.51158 1.16996,1.02544 1.60354,1.60354 0.11952,0.15936 0.15675,0.36877 0.26725,0.53451 0.31726,0.47589 0.63947,0.10495 1.06903,0.53451 0.063,0.063 -0.0399,0.18758 0,0.26726 0.0563,0.11268 0.21091,0.15457 0.26725,0.26726 0.12599,0.25197 0.16263,0.5402 0.26726,0.80176 0.074,0.18496 0.21894,0.34126 0.26725,0.53451 0.0783,0.31313 0,1.01298 0,1.33628 0,1.2472 0,2.49439 0,3.74159 0,1.87079 0,3.74158 0,5.61237 0,0.89085 0,1.78171 0,2.67256 0,0.17817 0,0.35634 0,0.53451 0,0.0891 0.0398,0.18758 0,0.26726 -0.0563,0.11268 -0.21091,0.15457 -0.26725,0.26725 -0.14254,0.28508 0.14253,0.78395 0,1.06903 -0.0891,0.17817 -0.39366,0.12639 -0.53451,0.26725 -0.43072,0.43072 -0.64051,1.65427 -0.80177,2.13805 -0.12599,0.37796 -0.32954,0.7274 -0.53451,1.06902 -0.33052,0.55086 -0.68359,1.08962 -1.06903,1.60354 -0.1785,0.23801 -0.70898,0.52342 -0.80176,0.80176 -0.0564,0.16903 0.1069,0.39198 0,0.53452 -0.19273,0.25696 -0.60905,0.27755 -0.80177,0.53451 -0.1069,0.14254 0,0.35634 0,0.53451 0,0.44543 0,0.89085 0,1.33628 0,0.97994 0,1.95988 0,2.93982 0,0.41796 0.0995,0.93842 0,1.33627 -0.0683,0.27331 -0.19893,0.52847 -0.26726,0.80177 -0.0432,0.17285 0.12599,0.40853 0,0.53451 -0.14085,0.14086 -0.39365,0.1264 -0.53451,0.26726 -0.12599,0.12598 0.0563,0.36549 0,0.53451 -0.12599,0.37796 -0.40853,0.69107 -0.53451,1.06902 -0.0282,0.0845 0.0282,0.18275 0,0.26726 -0.063,0.18898 -0.20427,0.34553 -0.26726,0.53451 -0.11268,0.33806 0.0979,0.7264 0,1.06903 -0.17817,0.35634 -0.35634,0.71268 -0.53451,1.06902 0,0.0891 0.0216,0.18083 0,0.26726 -0.0683,0.2733 -0.21201,0.52552 -0.26725,0.80176 -0.0742,0.37119 0.11135,1.00221 0,1.33628 -0.0282,0.0845 -0.21785,-0.0741 -0.26726,0 -0.814878,0.1892 -0.10299,0.7405 -0.26726,1.06903 -0.0713,0.14257 -1.226638,1.76115 -1.336278,1.87079 -0.063,0.063 -0.19313,-0.0494 -0.26725,0 -0.90648,0.60432 -0.1986,0.80177 -0.80177,0.80177 -1.0738,0 -0.58195,0.31469 -1.06902,0.80176 -0.0791,0.0791 -1.925825,-0.0424 -2.138052,0 -0.390663,0.0781 -0.682517,0.43789 -1.069023,0.53451 -0.172849,0.0432 -0.359801,-0.0349 -0.534511,0 -0.276243,0.0553 -0.525526,0.21201 -0.801769,0.26726 -0.34942,0.0699 -0.712682,0 -1.069023,0 -0.623596,0 -1.247193,0 -1.870792,0 -0.05295,0 -1.592815,0.0107 -1.603534,0 -0.140856,-0.14086 -0.204263,-0.34553 -0.267255,-0.53451 -0.02817,-0.0845 0.07412,-0.21784 0,-0.26726 -1.616967,-1.07797 -0.106992,0.38746 -1.336281,-0.53451 -0.201575,-0.15118 -0.318447,-0.40487 -0.534511,-0.53451 -0.241567,-0.14494 -0.56737,-0.11099 -0.801767,-0.26726 -0.314481,-0.20965 -0.463714,-0.63274 -0.80177,-0.80177 -0.23904,-0.11952 -0.553624,0.0993 -0.801766,0 -0.388906,-0.15556 -1.154282,-1.26659 -1.603537,-1.60353 -0.25696,-0.19272 -0.522885,-0.37515 -0.801767,-0.53451 -0.345908,-0.19766 -0.757922,-0.28563 -1.069022,-0.53451 -0.175223,-0.14018 -0.512588,-1.25955 -0.534511,-1.33628 -0.06041,-0.21143 -0.241372,-1.3104 -0.534514,-1.60354 -0.06299,-0.063 -0.227415,0.0797 -0.267256,0 -0.07968,-0.15936 0,-0.35634 0,-0.53451 0,-0.45343 0.102259,-2.7353 0,-2.93981 -0.05634,-0.11269 -0.210912,-0.15458 -0.267256,-0.26726 -0.401711,-0.80342 -0.134014,-1.02461 -1.069022,-1.33628 -0.08451,-0.0282 -0.184544,0.0331 -0.267256,0 -0.369908,-0.14796 -0.68595,-0.42506 -1.069025,-0.53451 -0.256971,-0.0734 -0.542491,0.0648 -0.801767,0 -0.122224,-0.0306 -0.154572,-0.21091 -0.267255,-0.26726 -0.07968,-0.0398 -0.180832,0.0216 -0.267256,0 -0.273301,-0.0683 -0.549796,-0.14127 -0.801769,-0.26725 -0.112684,-0.0564 -0.147736,-0.22742 -0.267256,-0.26726 -0.334708,-0.11157 -2.255848,0 -2.672559,0 -0.357431,0 -2.120998,-0.0948 -2.405303,0 -0.239041,0.0797 -0.309142,0.42183 -0.534511,0.53451 -0.07968,0.0398 -0.204264,-0.063 -0.267256,0 -0.06299,0.063 0.03984,0.18758 0,0.26726 -0.05634,0.11268 -0.197371,0.16243 -0.267256,0.26725 -0.110498,0.16575 -0.126399,0.39366 -0.267255,0.53452 -0.01601,0.016 -1.848358,-0.003 -1.870792,0 -0.363617,0.0519 -0.727985,0.13084 -1.069023,0.26725 -0.116975,0.0468 -0.154572,0.21092 -0.267255,0.26726 -0.07968,0.0398 -0.187577,-0.0398 -0.267256,0 -0.112686,0.0563 -0.16243,0.19737 -0.267258,0.26725 -0.305435,0.20363 -1.025837,0.47243 -1.336278,0.53452 -0.428295,0.0856 -0.907984,-0.0857 -1.336281,0 -0.195331,0.0391 -0.345533,0.20426 -0.534511,0.26725 -0.350592,0.11687 -1.838603,0 -2.405304,0 -0.341682,0 -1.619541,0.12563 -1.870789,0 -0.112686,-0.0563 -0.16243,-0.19737 -0.267256,-0.26725 -0.165745,-0.1105 -0.368768,-0.15676 -0.534513,-0.26726 -0.104826,-0.0699 -0.147736,-0.22742 -0.267256,-0.26726 -0.169026,-0.0563 -0.386265,0.0988 -0.534511,0 -0.165746,-0.11049 -0.105159,-0.41872 -0.267256,-0.53451 -0.648385,-0.46313 -1.500605,-0.59094 -2.138048,-1.06902 -0.201575,-0.15118 -0.332935,-0.38333 -0.534511,-0.53451 -0.159361,-0.11952 -0.393655,-0.1264 -0.534511,-0.26726 -0.140856,-0.14085 -0.15676,-0.36877 -0.267256,-0.53451 -0.164414,-0.24662 -1.165571,-1.25093 -1.33628,-1.33628 -0.07968,-0.0398 -0.204264,0.063 -0.267256,0 -0.675063,-0.67506 -0.102695,-0.30809 -0.267256,-0.80177 -0.183761,-0.55128 -0.661053,-1.04067 -0.801766,-1.60353 -0.06921,-0.27685 0,-0.76258 0,-1.06903 0,-1.06902 0,-2.13804 0,-3.20707 0,-0.35634 0.06988,-0.7196 0,-1.06902 -0.03907,-0.19533 -0.218943,-0.34126 -0.267259,-0.53451 -0.08642,-0.3457 0,-0.71268 0,-1.06903 0,-0.80176 0,-1.60353 0,-2.4053 0,-0.44543 0,-0.89085 0,-1.33628 0,-0.17817 -0.07968,-0.37515 0,-0.53451 0.143648,-0.28729 0.415221,-0.50354 0.534514,-0.80177 0.06617,-0.16543 -0.07968,-0.37515 0,-0.53451 0.1992,-0.3984 0.626306,-0.65961 0.801767,-1.06902 0.112546,-0.26261 0,-1.94093 0,-2.40531 0,-1.60353 0,-3.20707 0,-4.8106 0,-0.36398 -0.09426,-1.68228 0,-1.87079 0.172072,-0.34415 1.092303,-1.01098 1.336281,-1.33628 0.11952,-0.15936 0.126399,-0.39366 0.267255,-0.53451 0.27042,-0.27043 1.075354,-0.37796 1.336278,-0.53452 0.216065,-0.12963 0.332936,-0.38333 0.534512,-0.53451 0.962636,-0.72197 0.222766,0.41567 1.33628,-1.06902 0.05345,-0.0713 -0.07968,-0.22742 0,-0.26726 0.159362,-0.0797 0.365485,0.0563 0.534512,0 0.320706,-0.1069 0.48106,-0.69486 0.801767,-0.80177 0.169029,-0.0563 0.365484,0.0564 0.534513,0 0.119521,-0.0398 0.15457,-0.21091 0.267256,-0.26725 0.429091,-0.21455 0.907188,-0.31997 1.336278,-0.53451 0.22537,-0.11269 0.309142,-0.42183 0.534511,-0.53452 0.233635,-0.11681 0.843347,0.0564 1.069026,0 0.193251,-0.0483 0.368765,-0.15675 0.534511,-0.26725 0.104825,-0.0699 0.143716,-0.24255 0.267255,-0.26726 0.436777,-0.0873 0.913713,0.14086 1.336281,0 0.816428,-0.27214 0.252595,-0.26237 1.069023,-0.53451 0.08451,-0.0282 0.193132,0.0494 0.267255,0 0.209653,-0.13977 0.324858,-0.39474 0.534512,-0.53451 0.148248,-0.0988 0.359801,0.0349 0.534511,0 0.360177,-0.072 0.70885,-0.19522 1.069025,-0.26726 0.896726,-0.17934 1.856465,0.27681 2.672559,-0.26725 0.104825,-0.0699 0.16243,-0.19737 0.267255,-0.26726 0.165746,-0.1105 0.368766,-0.15676 0.534512,-0.26725 0.104828,-0.0699 0.154572,-0.21092 0.267255,-0.26726 0.07968,-0.0398 0.204264,0.063 0.267256,0 0.140856,-0.14086 0.204264,-0.34553 0.267256,-0.53451 0.02817,-0.0845 -0.06299,-0.20426 0,-0.26726 0.06299,-0.063 0.187576,0.0398 0.267258,0 0.306385,-0.15319 0.371753,-0.55763 0.534511,-0.80177 0.06988,-0.10482 0.220467,-0.15028 0.267256,-0.26725 0.08908,-0.35634 0.17817,-0.71268 0.267255,-1.06902 0.08908,0 0.204264,0.063 0.267256,0 0.06299,-0.063 -0.06299,-0.20427 0,-0.26726 0.06299,-0.063 0.180829,0.0216 0.267256,0 0.273301,-0.0683 0.528468,-0.19893 0.801766,-0.26726 0.172853,-0.0432 0.375153,0.0797 0.534514,0 0.112684,-0.0563 0.15457,-0.21091 0.267256,-0.26725 0.219043,-0.10952 2.740184,0 3.20707,0 0.110045,0 0.731023,0.0707 0.801767,0 0.04307,-0.0431 0.534514,-1.2797 0.534514,-0.53451 0,0.0891 -0.356344,0 -0.267259,0 0.267259,0 0.542494,0.0648 0.80177,0 0.898872,-0.22472 -0.868828,-1.02465 1.069022,0.26725 z"
       id="path4762"
       inkscape:connector-curvature="0" />
    <path
       style="opacity:1;vector-effect:none;fill:none;fill-opacity:1;stroke:#000000;stroke-width:0.76499999;stroke-linecap:butt;stroke-linejoin:miter;stroke-miterlimit:4;stroke-dasharray:none;stroke-dashoffset:0;stroke-opacity:1"
       d="m 165.43139,131.30135 c 1.8708,0 3.74158,0 5.61238,0 0.35634,0 0.7196,-0.0699 1.06902,0 0.19533,0.0391 0.34553,0.20426 0.53451,0.26726 0.0845,0.0282 0.20427,-0.063 0.26726,0 0.063,0.063 -0.063,0.20426 0,0.26725 0.0731,0.0731 0.92404,-0.0725 1.06902,0 0.22537,0.11269 0.30914,0.42183 0.53451,0.53451 0.0797,0.0398 0.17818,0 0.26726,0 0.0891,0.0891 0.15457,0.21092 0.26726,0.26726 0.0797,0.0398 0.20426,-0.063 0.26725,0 0.14086,0.14086 0.0965,0.43202 0.26726,0.53451 0.31496,0.18898 0.72798,0.13084 1.06902,0.26726 0.11698,0.0468 0.17817,0.17817 0.26726,0.26725 0.0891,0.0891 0.21091,0.15458 0.26725,0.26726 0.0398,0.0797 -0.0494,0.19313 0,0.26726 0.13977,0.20965 0.42183,0.30914 0.53452,0.53451 0.17817,0.35634 -0.17818,0.97994 0,1.33628 0.0563,0.11268 0.21091,0.15457 0.26725,0.26725 0.0966,0.19328 0,1.57025 0,1.87079 0,1.15811 0,2.31622 0,3.47433 0,0.29516 -0.0845,1.43463 0,1.60354 0.0563,0.11268 0.21091,0.15457 0.26726,0.26725 0.0398,0.0797 -0.0282,0.18275 0,0.26726 0.063,0.18898 0.20426,0.34553 0.26725,0.53451 0.0282,0.0845 -0.0398,0.18758 0,0.26726 0.0563,0.11268 0.21091,0.15457 0.26726,0.26725 0.0398,0.0797 -0.063,0.20426 0,0.26726 0.063,0.063 0.20426,-0.063 0.26725,0 0.063,0.063 -0.0398,0.18757 0,0.26725 0.0901,0.18023 0.88682,0.94755 1.06903,1.06903 0.16574,0.11049 0.39365,0.1264 0.53451,0.26725 0.063,0.063 -0.063,0.20427 0,0.26726 0.12598,0.12599 0.40852,-0.12599 0.53451,0 0.063,0.063 -0.063,0.20426 0,0.26725 0.36257,0.36257 0.96208,0.16032 1.06902,0.26726 0.063,0.063 -0.0797,0.22742 0,0.26726 0.15936,0.0797 0.36549,-0.0564 0.53452,0 0.37795,0.12598 0.69911,0.38655 1.06902,0.53451 0.16543,0.0662 0.36548,-0.0563 0.53451,0 0.18898,0.063 0.34553,0.20426 0.53451,0.26725 0.39645,0.13215 0.91679,-0.0599 1.33628,0 0.53644,0.0766 1.0671,0.19063 1.60354,0.26726 0.0882,0.0126 0.18274,-0.0282 0.26726,0 0.18897,0.063 0.34553,0.20426 0.53451,0.26726 0.16902,0.0563 0.37515,-0.0797 0.53451,0 0.11268,0.0563 0.14773,0.22741 0.26725,0.26725 0.33806,0.11269 0.72333,-0.0864 1.06903,0 0.19325,0.0483 0.34553,0.20427 0.53451,0.26726 0.16903,0.0563 0.40852,-0.12599 0.53451,0 0.14086,0.14085 0.1264,0.39365 0.26726,0.53451 0.55296,0.55296 -0.0216,-0.845 0.53451,0.26725 0.0398,0.0797 -0.0797,0.22742 0,0.26726 0.15936,0.0797 0.36548,-0.0563 0.53451,0 0.49605,0.16535 0.0678,0.56842 0.53451,0.80177 0.0797,0.0398 0.22742,-0.0797 0.26726,0 0.0797,0.15936 -0.0797,0.37515 0,0.53451 0.11268,0.22537 0.38333,0.33294 0.53451,0.53451 0.35195,0.46927 0.47608,1.11501 0.80177,1.60354 0.0699,0.10482 0.21091,0.15457 0.26725,0.26725 0.0398,0.0797 -0.0282,0.18275 0,0.26726 0.0891,0.17817 0.17817,0.35634 0.26726,0.53451 0,0.0891 -0.0282,0.18274 0,0.26726 0.12598,0.37795 0.40853,0.69106 0.53451,1.06902 0.10814,0.32443 0,1.01485 0,1.33628 0,1.15811 0,2.31622 0,3.47433 0,1.06902 0,2.13804 0,3.20707 0,0.44542 0.10803,0.90415 0,1.33628 -0.0306,0.12222 -0.21091,0.15457 -0.26725,0.26725 -0.0797,0.15936 0.0563,0.36549 0,0.53451 -0.27468,0.82403 -0.57658,0.61864 -1.06903,1.60354 -0.0797,0.15936 0.0563,0.36548 0,0.53451 -0.0398,0.11952 -0.17817,0.17817 -0.26725,0.26726 -0.0891,0.17817 -0.20427,0.34553 -0.26726,0.53451 -0.16456,0.49368 0.40781,0.1267 -0.26726,0.80177 -0.32551,0.32551 -0.5971,0.12518 -0.80176,0.53451 -0.12599,0.25197 -0.16263,0.5402 -0.26726,0.80177 -0.48444,1.2111 -0.0247,0.037 -0.53451,0.80176 -0.32569,0.48853 -0.44982,1.13427 -0.80177,1.60354 -0.22677,0.30236 -0.63274,0.46371 -0.80177,0.80177 -0.0398,0.0797 0.0282,0.18274 0,0.26725 -0.12598,0.37796 -0.31351,0.73754 -0.53451,1.06903 -0.0699,0.10482 -0.19737,0.16243 -0.26726,0.26725 -0.11049,0.16575 -0.16476,0.3637 -0.26725,0.53451 -0.16526,0.27543 -0.39087,0.51448 -0.53451,0.80177 -0.0398,0.0797 0.063,0.20427 0,0.26726 -0.14086,0.14085 -0.42402,0.10151 -0.53451,0.26725 -0.26612,0.39917 -0.38281,0.88116 -0.53451,1.33628 -0.0282,0.0845 0.0741,0.21784 0,0.26726 -0.2344,0.15627 -0.5498,0.14127 -0.80177,0.26726 -0.40933,0.20466 -0.209,0.47625 -0.53452,0.80176 -0.063,0.063 -0.20426,-0.063 -0.26725,0 -0.75252,0.0166 -0.0681,0.60257 -0.26726,0.80177 -0.063,0.063 -0.18083,-0.0216 -0.26725,0 -0.2733,0.0683 -0.56737,0.11099 -0.80177,0.26725 -0.0741,0.0494 0.063,0.20427 0,0.26726 -0.063,0.063 -0.18274,-0.0282 -0.26726,0 -0.45512,0.15171 -0.90719,0.31997 -1.33628,0.53451 -0.11268,0.0563 -0.15457,0.21092 -0.26725,0.26726 -0.25197,0.12598 -0.5498,0.14127 -0.80177,0.26726 -0.11268,0.0563 -0.14774,0.22741 -0.26726,0.26725 -0.16902,0.0563 -0.36548,-0.0563 -0.53451,0 -0.11952,0.0398 -0.15457,0.21091 -0.26725,0.26726 -0.0797,0.0398 -0.17817,0 -0.26726,0 -0.44543,0 -0.89691,-0.0732 -1.33628,0 -0.12427,0.0207 -0.15457,0.21091 -0.26726,0.26725 -0.16585,0.0829 -0.95014,0 -1.06902,0 -1.06902,0 -2.13805,0 -3.20707,0 -0.50132,0 -1.41773,-0.11326 -1.87079,0 -0.12222,0.0306 -0.14503,0.2367 -0.26726,0.26726 -0.1792,0.0448 -1.9315,0.0516 -2.13804,0 -0.81455,-0.20364 -0.43572,-0.43572 -1.06903,-1.06902 -0.14085,-0.14086 -0.36876,-0.15676 -0.53451,-0.26726 -0.10482,-0.0699 -0.15457,-0.21092 -0.26726,-0.26726 -0.25197,-0.12598 -0.54979,-0.14127 -0.80176,-0.26725 -0.32394,-0.16197 -0.9952,-0.9952 -1.33628,-1.33628 -0.0891,-0.0891 -0.15457,-0.21091 -0.26726,-0.26726 -0.0797,-0.0398 -0.22741,0.0797 -0.26725,0 -0.25496,-0.50991 0.30626,-0.515 -0.26726,-0.80176 -0.036,-0.018 -1.82999,0.11322 -0.53451,-0.53452 0.17817,-0.0891 0.46646,0.53452 0.26725,0.53452 -0.47973,0 -0.86211,-0.46157 -1.33627,-0.53452 -0.7044,-0.10837 -1.42537,0 -2.13805,0 -0.6236,0 -1.2472,0 -1.87079,0 -1.51445,0 -3.0289,0 -4.54335,0 -0.5049,0 -1.75048,0.0969 -2.13805,0 -0.12222,-0.0306 -0.15457,-0.21091 -0.26725,-0.26725 -0.0797,-0.0398 -0.18758,0.0398 -0.26726,0 -0.28729,-0.14365 -0.50354,-0.41522 -0.80177,-0.53452 -0.31489,-0.12595 -1.31505,0.14425 -1.60353,0 -0.2873,-0.14364 -0.50355,-0.41522 -0.80177,-0.53451 -0.17147,-0.0686 -0.76861,0.0497 -0.80177,0 -0.15627,-0.2344 -0.11099,-0.56737 -0.26726,-0.80176 -0.0494,-0.0741 -0.18274,0.0282 -0.26725,0 -0.37796,-0.12599 -0.69912,-0.38655 -1.06903,-0.53452 -0.26156,-0.10462 -0.54979,-0.14127 -0.80176,-0.26725 -0.2113,-0.10565 -1.67689,-1.18116 -1.87079,-1.33628 -0.39352,-0.31481 -0.63148,-0.819 -1.06903,-1.06903 -0.41653,-0.23801 -0.9459,-0.25566 -1.33628,-0.53451 -0.26137,-0.18669 -0.33385,-0.55095 -0.53451,-0.80176 -0.71599,-0.89499 -0.67894,-0.21665 -1.06902,-0.80177 -0.31906,-0.47859 -0.30485,-0.92218 -0.80177,-1.33628 -0.0908,-1.53383 -0.90719,-0.31997 -1.33628,-0.53451 -0.49202,-0.24602 -0.0425,-0.55576 -0.53451,-0.80177 -0.0797,-0.0398 -0.21784,0.0741 -0.26726,0 -0.93972,-0.11674 -0.0635,-0.7634 -0.26725,-1.06903 -0.13977,-0.20965 -0.38333,-0.33293 -0.53452,-0.53451 -0.35277,-0.47037 -0.44899,-1.13316 -0.80176,-1.60353 -0.15119,-0.20158 -0.39475,-0.32486 -0.53451,-0.53451 -0.0494,-0.0741 0.063,-0.20427 0,-0.26726 -0.14086,-0.14086 -0.39366,-0.1264 -0.53452,-0.26726 -0.063,-0.063 0.0216,-0.18082 0,-0.26725 -0.55612,-2.22451 0.0185,0.32261 -0.53451,-1.33628 -0.13363,-0.40088 0.13363,-0.9354 0,-1.33628 -0.063,-0.18898 -0.20426,-0.34553 -0.26725,-0.53451 -0.11269,-0.33806 0,-0.71269 0,-1.06903 0,-0.80176 0,-1.60353 0,-2.4053 0,-1.24719 0,-2.49439 0,-3.74158 0,-0.78463 -0.18498,-1.72695 0.26725,-2.4053 0.29881,-0.44822 1.11449,-0.8927 1.33628,-1.33628 0.0398,-0.0797 -0.063,-0.20427 0,-0.26726 0.063,-0.063 0.19313,0.0494 0.26726,0 0.92026,-0.6135 0.12265,-0.58357 1.33628,-1.06902 0.16542,-0.0662 0.36908,0.0662 0.53451,0 0.29823,-0.11929 0.51448,-0.39087 0.80177,-0.53451 0.0797,-0.0398 0.18757,0.0398 0.26725,0 0.11269,-0.0564 0.14774,-0.22742 0.26726,-0.26726 0.16903,-0.0563 0.36166,0.0432 0.53451,0 0.19325,-0.0483 0.34553,-0.20426 0.53451,-0.26726 0.0845,-0.0282 0.18274,0.0282 0.26726,0 0.68027,-0.22675 0.61182,-0.57316 1.06902,-0.80176 0.0797,-0.0398 0.17817,0 0.26726,0 0.26725,-0.0891 0.5602,-0.12232 0.80177,-0.26726 0.21606,-0.12964 0.30914,-0.42183 0.53451,-0.53451 0.31872,-0.15936 0.72332,0.0864 1.06902,0 0.95024,-0.23756 0.20787,-0.20787 0.80177,-0.80177 0.14086,-0.14085 0.34799,-0.19731 0.53451,-0.26725 0.52755,-0.19784 1.11435,-0.25498 1.60353,-0.53452 0.17296,-0.0988 0.1264,-0.39365 0.26726,-0.53451 0.14086,-0.14086 0.35634,-0.17817 0.53451,-0.26725 0.17817,-0.0891 0.34554,-0.20427 0.53451,-0.26726 0.0845,-0.0282 0.19314,0.0494 0.26726,0 0.45776,-0.30518 1.19334,-1.19334 1.60354,-1.60354 0.26906,-0.26906 1.1667,-0.99712 1.33627,-1.33627 0.0797,-0.15937 0,-0.35635 0,-0.53452 0,-0.0891 -0.063,-0.20426 0,-0.26725 0.063,-0.063 0.20427,0.063 0.26726,0 0.063,-0.063 -0.0398,-0.18758 0,-0.26726 0.0563,-0.11268 0.21091,-0.15457 0.26726,-0.26726 0.0797,-0.15935 -0.0432,-0.36165 0,-0.53451 0.0683,-0.2733 0.14127,-0.54979 0.26725,-0.80176 0.0563,-0.11269 0.19738,-0.16243 0.26726,-0.26726 0.1105,-0.16574 0.17817,-0.35634 0.26726,-0.53451 0.17817,-0.17817 0.38332,-0.33294 0.53451,-0.53451 0.11952,-0.15936 0.10151,-0.42402 0.26725,-0.53452 0.14825,-0.0988 0.37515,0.0797 0.53451,0 0.0797,-0.0398 -0.0398,-0.18757 0,-0.26725 0.18925,-0.3785 0.79857,-0.70842 1.06903,-1.06902 0.19272,-0.25697 0.27755,-0.60905 0.53451,-0.80177 0.14254,-0.1069 0.37515,0.0797 0.53451,0 0.17817,-0.17817 0.35634,-0.35634 0.53451,-0.53451 0.0891,0 0.18758,0.0398 0.26726,0 0.3207,-0.16036 0.48106,-0.64142 0.80177,-0.80177 0.0797,-0.0398 0.19313,0.0494 0.26725,0 0.31448,-0.20965 0.46371,-0.63274 0.80177,-0.80177 0.0797,-0.0398 0.18758,0.0398 0.26726,0 0.28729,-0.14365 0.51447,-0.39087 0.80176,-0.53451 1.05661,-0.5283 0.88647,-0.0282 1.60354,-0.26726 0.11952,-0.0398 0.15457,-0.21091 0.26725,-0.26725 0.2283,-0.11415 1.26895,0.0669 1.60354,0 0.36018,-0.072 0.71268,-0.17817 1.06902,-0.26726 z"
       id="path4764"
       inkscape:connector-curvature="0" />
    <text
       xml:space="preserve"
       style="font-style:normal;font-weight:normal;font-size:7.65184498px;line-height:1.25;font-family:sans-serif;letter-spacing:0px;word-spacing:0px;fill:#000000;fill-opacity:1;stroke:none;stroke-width:0.19129613"
       x="96.087807"
       y="123.23415"
       id="text4495-7"
       transform="scale(0.92379137,1.0824955)"><tspan
         sodipodi:role="line"
         id="tspan4493-9"
         x="96.087807"
         y="123.23415"
         style="font-style:normal;font-variant:normal;font-weight:normal;font-stretch:normal;font-family:'Microsoft YaHei';-inkscape-font-specification:'Microsoft YaHei';stroke-width:0.19129613">小島1</tspan></text>
    <text
       xml:space="preserve"
       style="font-style:normal;font-weight:normal;font-size:7.65184498px;line-height:1.25;font-family:sans-serif;letter-spacing:0px;word-spacing:0px;fill:#000000;fill-opacity:1;stroke:none;stroke-width:0.19129613"
       x="195.68039"
       y="131.43665"
       id="text4495-7-9"
       transform="scale(0.92379136,1.0824955)"><tspan
         sodipodi:role="line"
         id="tspan4493-9-4"
         x="195.68039"
         y="131.43665"
         style="font-style:normal;font-variant:normal;font-weight:normal;font-stretch:normal;font-family:'Microsoft YaHei';-inkscape-font-specification:'Microsoft YaHei';stroke-width:0.19129613">小島2</tspan></text>
  </g>
</svg>
